# xmcd
# 
# Track frame offsets:
#     150
#     36967
#     66525
#     97635
#     132282
#     148705
#     178277
#     188242
#     212845
# 
# Disc length: 3297
# 
# Revision: 1
# Processed by: cddbd v1.5.2PL0 Copyright (c) Steve Scherf et al.
# Submitted via: BonkEnc v1.0.8
# 
DISCID=890cdf09
DTITLE=Pekka Pylkkänen - Opaque
DYEAR=2000
DGENRE=Fusion
TTITLE0=Donnerwerter
TTITLE1=Wallaby's Dance
TTITLE2=Lumi
TTITLE3=Tomcat
TTITLE4=Black Pearl
TTITLE5=The Picture Of Dorian Gray
TTITLE6=Balinese Wedding Song
TTITLE7=Hilipata
TTITLE8=Un Trou Dans La Boue
EXTD=YEAR: 2002
EXTT0=
EXTT1=
EXTT2=
EXTT3=
EXTT4=
EXTT5=
EXTT6=
EXTT7=
EXTT8=
PLAYORDER=
